<mxfile host="app.diagrams.net" agent="Mozilla/5.0 (X11; Linux x86_64; rv:128.0) Gecko/20100101 Firefox/128.0" version="26.0.10">
  <diagram name="Page-1" id="73JINxNDVPpBjRuvrl-k">
    <mxGraphModel dx="1366" dy="807" grid="1" gridSize="10" guides="1" tooltips="1" connect="1" arrows="1" fold="1" page="1" pageScale="1" pageWidth="850" pageHeight="1100" math="0" shadow="0">
      <root>
        <mxCell id="0" />
        <mxCell id="1" parent="0" />
        <mxCell id="Cb1e_FcJDhHYXEoBhxYz-40" value="" style="group" vertex="1" connectable="0" parent="1">
          <mxGeometry width="480" height="450" as="geometry" />
        </mxCell>
        <mxCell id="Cb1e_FcJDhHYXEoBhxYz-39" value="" style="rounded=0;whiteSpace=wrap;html=1;" vertex="1" parent="Cb1e_FcJDhHYXEoBhxYz-40">
          <mxGeometry width="480" height="450" as="geometry" />
        </mxCell>
        <mxCell id="Cb1e_FcJDhHYXEoBhxYz-8" value="Usuario" style="shape=table;startSize=30;container=1;collapsible=1;childLayout=tableLayout;fixedRows=1;rowLines=0;fontStyle=1;align=center;resizeLast=1;html=1;" vertex="1" parent="Cb1e_FcJDhHYXEoBhxYz-40">
          <mxGeometry x="40" y="40" width="180" height="120" as="geometry" />
        </mxCell>
        <mxCell id="Cb1e_FcJDhHYXEoBhxYz-9" value="" style="shape=tableRow;horizontal=0;startSize=0;swimlaneHead=0;swimlaneBody=0;fillColor=none;collapsible=0;dropTarget=0;points=[[0,0.5],[1,0.5]];portConstraint=eastwest;top=0;left=0;right=0;bottom=1;" vertex="1" parent="Cb1e_FcJDhHYXEoBhxYz-8">
          <mxGeometry y="30" width="180" height="30" as="geometry" />
        </mxCell>
        <mxCell id="Cb1e_FcJDhHYXEoBhxYz-10" value="PK" style="shape=partialRectangle;connectable=0;fillColor=none;top=0;left=0;bottom=0;right=0;fontStyle=1;overflow=hidden;whiteSpace=wrap;html=1;" vertex="1" parent="Cb1e_FcJDhHYXEoBhxYz-9">
          <mxGeometry width="30" height="30" as="geometry">
            <mxRectangle width="30" height="30" as="alternateBounds" />
          </mxGeometry>
        </mxCell>
        <mxCell id="Cb1e_FcJDhHYXEoBhxYz-11" value="id_usuario" style="shape=partialRectangle;connectable=0;fillColor=none;top=0;left=0;bottom=0;right=0;align=left;spacingLeft=6;fontStyle=5;overflow=hidden;whiteSpace=wrap;html=1;" vertex="1" parent="Cb1e_FcJDhHYXEoBhxYz-9">
          <mxGeometry x="30" width="150" height="30" as="geometry">
            <mxRectangle width="150" height="30" as="alternateBounds" />
          </mxGeometry>
        </mxCell>
        <mxCell id="Cb1e_FcJDhHYXEoBhxYz-12" value="" style="shape=tableRow;horizontal=0;startSize=0;swimlaneHead=0;swimlaneBody=0;fillColor=none;collapsible=0;dropTarget=0;points=[[0,0.5],[1,0.5]];portConstraint=eastwest;top=0;left=0;right=0;bottom=0;" vertex="1" parent="Cb1e_FcJDhHYXEoBhxYz-8">
          <mxGeometry y="60" width="180" height="30" as="geometry" />
        </mxCell>
        <mxCell id="Cb1e_FcJDhHYXEoBhxYz-13" value="" style="shape=partialRectangle;connectable=0;fillColor=none;top=0;left=0;bottom=0;right=0;editable=1;overflow=hidden;whiteSpace=wrap;html=1;" vertex="1" parent="Cb1e_FcJDhHYXEoBhxYz-12">
          <mxGeometry width="30" height="30" as="geometry">
            <mxRectangle width="30" height="30" as="alternateBounds" />
          </mxGeometry>
        </mxCell>
        <mxCell id="Cb1e_FcJDhHYXEoBhxYz-14" value="nombre" style="shape=partialRectangle;connectable=0;fillColor=none;top=0;left=0;bottom=0;right=0;align=left;spacingLeft=6;overflow=hidden;whiteSpace=wrap;html=1;" vertex="1" parent="Cb1e_FcJDhHYXEoBhxYz-12">
          <mxGeometry x="30" width="150" height="30" as="geometry">
            <mxRectangle width="150" height="30" as="alternateBounds" />
          </mxGeometry>
        </mxCell>
        <mxCell id="Cb1e_FcJDhHYXEoBhxYz-15" value="" style="shape=tableRow;horizontal=0;startSize=0;swimlaneHead=0;swimlaneBody=0;fillColor=none;collapsible=0;dropTarget=0;points=[[0,0.5],[1,0.5]];portConstraint=eastwest;top=0;left=0;right=0;bottom=0;" vertex="1" parent="Cb1e_FcJDhHYXEoBhxYz-8">
          <mxGeometry y="90" width="180" height="30" as="geometry" />
        </mxCell>
        <mxCell id="Cb1e_FcJDhHYXEoBhxYz-16" value="" style="shape=partialRectangle;connectable=0;fillColor=none;top=0;left=0;bottom=0;right=0;editable=1;overflow=hidden;whiteSpace=wrap;html=1;" vertex="1" parent="Cb1e_FcJDhHYXEoBhxYz-15">
          <mxGeometry width="30" height="30" as="geometry">
            <mxRectangle width="30" height="30" as="alternateBounds" />
          </mxGeometry>
        </mxCell>
        <mxCell id="Cb1e_FcJDhHYXEoBhxYz-17" value="descripcion" style="shape=partialRectangle;connectable=0;fillColor=none;top=0;left=0;bottom=0;right=0;align=left;spacingLeft=6;overflow=hidden;whiteSpace=wrap;html=1;" vertex="1" parent="Cb1e_FcJDhHYXEoBhxYz-15">
          <mxGeometry x="30" width="150" height="30" as="geometry">
            <mxRectangle width="150" height="30" as="alternateBounds" />
          </mxGeometry>
        </mxCell>
        <mxCell id="Cb1e_FcJDhHYXEoBhxYz-21" value="Seguimientos" style="shape=table;startSize=30;container=1;collapsible=1;childLayout=tableLayout;fixedRows=1;rowLines=0;fontStyle=1;align=center;resizeLast=1;html=1;" vertex="1" parent="Cb1e_FcJDhHYXEoBhxYz-40">
          <mxGeometry x="260" y="40" width="180" height="90" as="geometry" />
        </mxCell>
        <mxCell id="Cb1e_FcJDhHYXEoBhxYz-22" value="" style="shape=tableRow;horizontal=0;startSize=0;swimlaneHead=0;swimlaneBody=0;fillColor=none;collapsible=0;dropTarget=0;points=[[0,0.5],[1,0.5]];portConstraint=eastwest;top=0;left=0;right=0;bottom=0;" vertex="1" parent="Cb1e_FcJDhHYXEoBhxYz-21">
          <mxGeometry y="30" width="180" height="30" as="geometry" />
        </mxCell>
        <mxCell id="Cb1e_FcJDhHYXEoBhxYz-23" value="PK,FK1" style="shape=partialRectangle;connectable=0;fillColor=none;top=0;left=0;bottom=0;right=0;fontStyle=1;overflow=hidden;whiteSpace=wrap;html=1;" vertex="1" parent="Cb1e_FcJDhHYXEoBhxYz-22">
          <mxGeometry width="50" height="30" as="geometry">
            <mxRectangle width="50" height="30" as="alternateBounds" />
          </mxGeometry>
        </mxCell>
        <mxCell id="Cb1e_FcJDhHYXEoBhxYz-24" value="id_usuario_seguidor" style="shape=partialRectangle;connectable=0;fillColor=none;top=0;left=0;bottom=0;right=0;align=left;spacingLeft=6;fontStyle=5;overflow=hidden;whiteSpace=wrap;html=1;" vertex="1" parent="Cb1e_FcJDhHYXEoBhxYz-22">
          <mxGeometry x="50" width="130" height="30" as="geometry">
            <mxRectangle width="130" height="30" as="alternateBounds" />
          </mxGeometry>
        </mxCell>
        <mxCell id="Cb1e_FcJDhHYXEoBhxYz-31" value="" style="shape=tableRow;horizontal=0;startSize=0;swimlaneHead=0;swimlaneBody=0;fillColor=none;collapsible=0;dropTarget=0;points=[[0,0.5],[1,0.5]];portConstraint=eastwest;top=0;left=0;right=0;bottom=1;" vertex="1" parent="Cb1e_FcJDhHYXEoBhxYz-21">
          <mxGeometry y="60" width="180" height="30" as="geometry" />
        </mxCell>
        <mxCell id="Cb1e_FcJDhHYXEoBhxYz-32" value="PK,FK2" style="shape=partialRectangle;connectable=0;fillColor=none;top=0;left=0;bottom=0;right=0;fontStyle=1;overflow=hidden;whiteSpace=wrap;html=1;" vertex="1" parent="Cb1e_FcJDhHYXEoBhxYz-31">
          <mxGeometry width="50" height="30" as="geometry">
            <mxRectangle width="50" height="30" as="alternateBounds" />
          </mxGeometry>
        </mxCell>
        <mxCell id="Cb1e_FcJDhHYXEoBhxYz-33" value="id_usuario_seguido" style="shape=partialRectangle;connectable=0;fillColor=none;top=0;left=0;bottom=0;right=0;align=left;spacingLeft=6;fontStyle=5;overflow=hidden;whiteSpace=wrap;html=1;" vertex="1" parent="Cb1e_FcJDhHYXEoBhxYz-31">
          <mxGeometry x="50" width="130" height="30" as="geometry">
            <mxRectangle width="130" height="30" as="alternateBounds" />
          </mxGeometry>
        </mxCell>
        <mxCell id="Cb1e_FcJDhHYXEoBhxYz-34" style="edgeStyle=orthogonalEdgeStyle;rounded=0;orthogonalLoop=1;jettySize=auto;html=1;exitX=1;exitY=0.5;exitDx=0;exitDy=0;entryX=0;entryY=0.5;entryDx=0;entryDy=0;endArrow=none;startFill=0;" edge="1" parent="Cb1e_FcJDhHYXEoBhxYz-40" source="Cb1e_FcJDhHYXEoBhxYz-9" target="Cb1e_FcJDhHYXEoBhxYz-22">
          <mxGeometry relative="1" as="geometry" />
        </mxCell>
        <mxCell id="Cb1e_FcJDhHYXEoBhxYz-35" style="edgeStyle=orthogonalEdgeStyle;rounded=0;orthogonalLoop=1;jettySize=auto;html=1;exitX=1;exitY=0.5;exitDx=0;exitDy=0;entryX=0;entryY=0.5;entryDx=0;entryDy=0;endArrow=none;startFill=0;" edge="1" parent="Cb1e_FcJDhHYXEoBhxYz-40" source="Cb1e_FcJDhHYXEoBhxYz-9" target="Cb1e_FcJDhHYXEoBhxYz-31">
          <mxGeometry relative="1" as="geometry" />
        </mxCell>
        <mxCell id="Cb1e_FcJDhHYXEoBhxYz-1" value="Usuario" style="rounded=0;whiteSpace=wrap;html=1;fillColor=#d5e8d4;strokeColor=#82b366;" vertex="1" parent="Cb1e_FcJDhHYXEoBhxYz-40">
          <mxGeometry x="65" y="320" width="120" height="60" as="geometry" />
        </mxCell>
        <mxCell id="Cb1e_FcJDhHYXEoBhxYz-3" style="edgeStyle=orthogonalEdgeStyle;rounded=0;orthogonalLoop=1;jettySize=auto;html=1;exitX=0.5;exitY=0;exitDx=0;exitDy=0;entryX=0.5;entryY=0;entryDx=0;entryDy=0;endArrow=none;startFill=0;" edge="1" parent="Cb1e_FcJDhHYXEoBhxYz-40" source="Cb1e_FcJDhHYXEoBhxYz-2" target="Cb1e_FcJDhHYXEoBhxYz-1">
          <mxGeometry relative="1" as="geometry" />
        </mxCell>
        <mxCell id="Cb1e_FcJDhHYXEoBhxYz-4" style="edgeStyle=orthogonalEdgeStyle;rounded=0;orthogonalLoop=1;jettySize=auto;html=1;exitX=0.5;exitY=1;exitDx=0;exitDy=0;entryX=0.5;entryY=1;entryDx=0;entryDy=0;endArrow=none;startFill=0;" edge="1" parent="Cb1e_FcJDhHYXEoBhxYz-40" source="Cb1e_FcJDhHYXEoBhxYz-2" target="Cb1e_FcJDhHYXEoBhxYz-1">
          <mxGeometry relative="1" as="geometry" />
        </mxCell>
        <mxCell id="Cb1e_FcJDhHYXEoBhxYz-2" value="seguir" style="rhombus;whiteSpace=wrap;html=1;fillColor=#fff2cc;strokeColor=#d6b656;" vertex="1" parent="Cb1e_FcJDhHYXEoBhxYz-40">
          <mxGeometry x="285" y="310" width="80" height="80" as="geometry" />
        </mxCell>
        <mxCell id="Cb1e_FcJDhHYXEoBhxYz-5" value="(0:N)" style="text;html=1;align=center;verticalAlign=middle;resizable=0;points=[];autosize=1;strokeColor=none;fillColor=none;" vertex="1" parent="Cb1e_FcJDhHYXEoBhxYz-40">
          <mxGeometry x="215" y="260" width="50" height="30" as="geometry" />
        </mxCell>
        <mxCell id="Cb1e_FcJDhHYXEoBhxYz-6" value="(0:N)" style="text;html=1;align=center;verticalAlign=middle;resizable=0;points=[];autosize=1;strokeColor=none;fillColor=none;" vertex="1" parent="Cb1e_FcJDhHYXEoBhxYz-40">
          <mxGeometry x="215" y="380" width="50" height="30" as="geometry" />
        </mxCell>
        <mxCell id="Cb1e_FcJDhHYXEoBhxYz-7" value="N:M" style="text;html=1;align=center;verticalAlign=middle;resizable=0;points=[];autosize=1;strokeColor=none;fillColor=none;fontStyle=1" vertex="1" parent="Cb1e_FcJDhHYXEoBhxYz-40">
          <mxGeometry x="365" y="335" width="50" height="30" as="geometry" />
        </mxCell>
      </root>
    </mxGraphModel>
  </diagram>
</mxfile>
